<svg xmlns="http://www.w3.org/2000/svg" width="850" height="180" version="1.1">
            <rect width="850" height="180" rx="5" ry="5" style="fill: #23272d;"></rect>
            <text x="15" y="30" fill="#ffffff" font-size="18" font-family="Tahoma">
                blograss's Blog Grass(2021)
            </text>
            <g id="grassContainer">
                <rect width="10px" height="10px" x="45" y="65" rx="2px" ry="2px" style="fill: #2e333a"></rect>
            <rect width="10px" height="10px" x="45" y="78" rx="2px" ry="2px" style="fill: #4d4d4d"></rect>
            <rect width="10px" height="10px" x="45" y="91" rx="2px" ry="2px" style="fill: #808080"></rect>
            <rect width="10px" height="10px" x="45" y="104" rx="2px" ry="2px" style="fill: #bfbfbf"></rect>
            <rect width="10px" height="10px" x="45" y="117" rx="2px" ry="2px" style="fill: #ffffff"></rect>
            <rect width="10px" height="10px" x="45" y="130" rx="2px" ry="2px" style="fill: #2e333a"></rect>
            <rect width="10px" height="10px" x="45" y="143" rx="2px" ry="2px" style="fill: #2e333a"></rect>
            <rect width="10px" height="10px" x="58" y="65" rx="2px" ry="2px" style="fill: #4d4d4d"></rect>
            <rect width="10px" height="10px" x="58" y="78" rx="2px" ry="2px" style="fill: #808080"></rect>
            <rect width="10px" height="10px" x="58" y="91" rx="2px" ry="2px" style="fill: #bfbfbf"></rect>
            <rect width="10px" height="10px" x="58" y="104" rx="2px" ry="2px" style="fill: #ffffff"></rect>
            <rect width="10px" height="10px" x="58" y="117" rx="2px" ry="2px" style="fill: #2e333a"></rect>
            <rect width="10px" height="10px" x="58" y="130" rx="2px" ry="2px" style="fill: #2e333a"></rect>
            <rect width="10px" height="10px" x="58" y="143" rx="2px" ry="2px" style="fill: #4d4d4d"></rect>
            <rect width="10px" height="10px" x="71" y="65" rx="2px" ry="2px" style="fill: #808080"></rect>
            <rect width="10px" height="10px" x="71" y="78" rx="2px" ry="2px" style="fill: #bfbfbf"></rect>
            <rect width="10px" height="10px" x="71" y="91" rx="2px" ry="2px" style="fill: #ffffff"></rect>
            <rect width="10px" height="10px" x="71" y="104" rx="2px" ry="2px" style="fill: #2e333a"></rect>
            <rect width="10px" height="10px" x="71" y="117" rx="2px" ry="2px" style="fill: #2e333a"></rect>
            <rect width="10px" height="10px" x="71" y="130" rx="2px" ry="2px" style="fill: #4d4d4d"></rect>
            <rect width="10px" height="10px" x="71" y="143" rx="2px" ry="2px" style="fill: #808080"></rect>
            <rect width="10px" height="10px" x="84" y="65" rx="2px" ry="2px" style="fill: #bfbfbf"></rect>
            <rect width="10px" height="10px" x="84" y="78" rx="2px" ry="2px" style="fill: #ffffff"></rect>
            <rect width="10px" height="10px" x="84" y="91" rx="2px" ry="2px" style="fill: #2e333a"></rect>
            <rect width="10px" height="10px" x="84" y="104" rx="2px" ry="2px" style="fill: #2e333a"></rect>
            <rect width="10px" height="10px" x="84" y="117" rx="2px" ry="2px" style="fill: #4d4d4d"></rect>
            <rect width="10px" height="10px" x="84" y="130" rx="2px" ry="2px" style="fill: #808080"></rect>
            <rect width="10px" height="10px" x="84" y="143" rx="2px" ry="2px" style="fill: #bfbfbf"></rect>
            <rect width="10px" height="10px" x="97" y="65" rx="2px" ry="2px" style="fill: #ffffff"></rect>
            <rect width="10px" height="10px" x="97" y="78" rx="2px" ry="2px" style="fill: #2e333a"></rect>
            <rect width="10px" height="10px" x="97" y="91" rx="2px" ry="2px" style="fill: #2e333a"></rect>
            <rect width="10px" height="10px" x="97" y="104" rx="2px" ry="2px" style="fill: #4d4d4d"></rect>
            <rect width="10px" height="10px" x="97" y="117" rx="2px" ry="2px" style="fill: #808080"></rect>
            <rect width="10px" height="10px" x="97" y="130" rx="2px" ry="2px" style="fill: #bfbfbf"></rect>
            <rect width="10px" height="10px" x="97" y="143" rx="2px" ry="2px" style="fill: #ffffff"></rect>
            <rect width="10px" height="10px" x="110" y="65" rx="2px" ry="2px" style="fill: #2e333a"></rect>
            <rect width="10px" height="10px" x="110" y="78" rx="2px" ry="2px" style="fill: #2e333a"></rect>
            <rect width="10px" height="10px" x="110" y="91" rx="2px" ry="2px" style="fill: #4d4d4d"></rect>
            <rect width="10px" height="10px" x="110" y="104" rx="2px" ry="2px" style="fill: #808080"></rect>
            <rect width="10px" height="10px" x="110" y="117" rx="2px" ry="2px" style="fill: #bfbfbf"></rect>
            <rect width="10px" height="10px" x="110" y="130" rx="2px" ry="2px" style="fill: #ffffff"></rect>
            <rect width="10px" height="10px" x="110" y="143" rx="2px" ry="2px" style="fill: #2e333a"></rect>
            <rect width="10px" height="10px" x="123" y="65" rx="2px" ry="2px" style="fill: #2e333a"></rect>
            <rect width="10px" height="10px" x="123" y="78" rx="2px" ry="2px" style="fill: #4d4d4d"></rect>
            <rect width="10px" height="10px" x="123" y="91" rx="2px" ry="2px" style="fill: #808080"></rect>
            <rect width="10px" height="10px" x="123" y="104" rx="2px" ry="2px" style="fill: #bfbfbf"></rect>
            <rect width="10px" height="10px" x="123" y="117" rx="2px" ry="2px" style="fill: #ffffff"></rect>
            <rect width="10px" height="10px" x="123" y="130" rx="2px" ry="2px" style="fill: #2e333a"></rect>
            <rect width="10px" height="10px" x="123" y="143" rx="2px" ry="2px" style="fill: #2e333a"></rect>
            <rect width="10px" height="10px" x="136" y="65" rx="2px" ry="2px" style="fill: #4d4d4d"></rect>
            <rect width="10px" height="10px" x="136" y="78" rx="2px" ry="2px" style="fill: #808080"></rect>
            <rect width="10px" height="10px" x="136" y="91" rx="2px" ry="2px" style="fill: #bfbfbf"></rect>
            <rect width="10px" height="10px" x="136" y="104" rx="2px" ry="2px" style="fill: #ffffff"></rect>
            <rect width="10px" height="10px" x="136" y="117" rx="2px" ry="2px" style="fill: #2e333a"></rect>
            <rect width="10px" height="10px" x="136" y="130" rx="2px" ry="2px" style="fill: #2e333a"></rect>
            <rect width="10px" height="10px" x="136" y="143" rx="2px" ry="2px" style="fill: #4d4d4d"></rect>
            <rect width="10px" height="10px" x="149" y="65" rx="2px" ry="2px" style="fill: #808080"></rect>
            <rect width="10px" height="10px" x="149" y="78" rx="2px" ry="2px" style="fill: #bfbfbf"></rect>
            <rect width="10px" height="10px" x="149" y="91" rx="2px" ry="2px" style="fill: #ffffff"></rect>
            <rect width="10px" height="10px" x="149" y="104" rx="2px" ry="2px" style="fill: #2e333a"></rect>
            <rect width="10px" height="10px" x="149" y="117" rx="2px" ry="2px" style="fill: #2e333a"></rect>
            <rect width="10px" height="10px" x="149" y="130" rx="2px" ry="2px" style="fill: #4d4d4d"></rect>
            <rect width="10px" height="10px" x="149" y="143" rx="2px" ry="2px" style="fill: #808080"></rect>
            <rect width="10px" height="10px" x="162" y="65" rx="2px" ry="2px" style="fill: #bfbfbf"></rect>
            <rect width="10px" height="10px" x="162" y="78" rx="2px" ry="2px" style="fill: #ffffff"></rect>
            <rect width="10px" height="10px" x="162" y="91" rx="2px" ry="2px" style="fill: #2e333a"></rect>
            <rect width="10px" height="10px" x="162" y="104" rx="2px" ry="2px" style="fill: #2e333a"></rect>
            <rect width="10px" height="10px" x="162" y="117" rx="2px" ry="2px" style="fill: #4d4d4d"></rect>
            <rect width="10px" height="10px" x="162" y="130" rx="2px" ry="2px" style="fill: #808080"></rect>
            <rect width="10px" height="10px" x="162" y="143" rx="2px" ry="2px" style="fill: #bfbfbf"></rect>
            <rect width="10px" height="10px" x="175" y="65" rx="2px" ry="2px" style="fill: #ffffff"></rect>
            <rect width="10px" height="10px" x="175" y="78" rx="2px" ry="2px" style="fill: #2e333a"></rect>
            <rect width="10px" height="10px" x="175" y="91" rx="2px" ry="2px" style="fill: #2e333a"></rect>
            <rect width="10px" height="10px" x="175" y="104" rx="2px" ry="2px" style="fill: #4d4d4d"></rect>
            <rect width="10px" height="10px" x="175" y="117" rx="2px" ry="2px" style="fill: #808080"></rect>
            <rect width="10px" height="10px" x="175" y="130" rx="2px" ry="2px" style="fill: #bfbfbf"></rect>
            <rect width="10px" height="10px" x="175" y="143" rx="2px" ry="2px" style="fill: #ffffff"></rect>
            <rect width="10px" height="10px" x="188" y="65" rx="2px" ry="2px" style="fill: #2e333a"></rect>
            <rect width="10px" height="10px" x="188" y="78" rx="2px" ry="2px" style="fill: #2e333a"></rect>
            <rect width="10px" height="10px" x="188" y="91" rx="2px" ry="2px" style="fill: #4d4d4d"></rect>
            <rect width="10px" height="10px" x="188" y="104" rx="2px" ry="2px" style="fill: #808080"></rect>
            <rect width="10px" height="10px" x="188" y="117" rx="2px" ry="2px" style="fill: #bfbfbf"></rect>
            <rect width="10px" height="10px" x="188" y="130" rx="2px" ry="2px" style="fill: #ffffff"></rect>
            <rect width="10px" height="10px" x="188" y="143" rx="2px" ry="2px" style="fill: #2e333a"></rect>
            <rect width="10px" height="10px" x="201" y="65" rx="2px" ry="2px" style="fill: #2e333a"></rect>
            <rect width="10px" height="10px" x="201" y="78" rx="2px" ry="2px" style="fill: #4d4d4d"></rect>
            <rect width="10px" height="10px" x="201" y="91" rx="2px" ry="2px" style="fill: #808080"></rect>
            <rect width="10px" height="10px" x="201" y="104" rx="2px" ry="2px" style="fill: #bfbfbf"></rect>
            <rect width="10px" height="10px" x="201" y="117" rx="2px" ry="2px" style="fill: #ffffff"></rect>
            <rect width="10px" height="10px" x="201" y="130" rx="2px" ry="2px" style="fill: #2e333a"></rect>
            <rect width="10px" height="10px" x="201" y="143" rx="2px" ry="2px" style="fill: #2e333a"></rect>
            <rect width="10px" height="10px" x="214" y="65" rx="2px" ry="2px" style="fill: #4d4d4d"></rect>
            <rect width="10px" height="10px" x="214" y="78" rx="2px" ry="2px" style="fill: #808080"></rect>
            <rect width="10px" height="10px" x="214" y="91" rx="2px" ry="2px" style="fill: #bfbfbf"></rect>
            <rect width="10px" height="10px" x="214" y="104" rx="2px" ry="2px" style="fill: #ffffff"></rect>
            <rect width="10px" height="10px" x="214" y="117" rx="2px" ry="2px" style="fill: #2e333a"></rect>
            <rect width="10px" height="10px" x="214" y="130" rx="2px" ry="2px" style="fill: #2e333a"></rect>
            <rect width="10px" height="10px" x="214" y="143" rx="2px" ry="2px" style="fill: #4d4d4d"></rect>
            <rect width="10px" height="10px" x="227" y="65" rx="2px" ry="2px" style="fill: #808080"></rect>
            <rect width="10px" height="10px" x="227" y="78" rx="2px" ry="2px" style="fill: #bfbfbf"></rect>
            <rect width="10px" height="10px" x="227" y="91" rx="2px" ry="2px" style="fill: #ffffff"></rect>
            <rect width="10px" height="10px" x="227" y="104" rx="2px" ry="2px" style="fill: #2e333a"></rect>
            <rect width="10px" height="10px" x="227" y="117" rx="2px" ry="2px" style="fill: #2e333a"></rect>
            <rect width="10px" height="10px" x="227" y="130" rx="2px" ry="2px" style="fill: #4d4d4d"></rect>
            <rect width="10px" height="10px" x="227" y="143" rx="2px" ry="2px" style="fill: #808080"></rect>
            <rect width="10px" height="10px" x="240" y="65" rx="2px" ry="2px" style="fill: #bfbfbf"></rect>
            <rect width="10px" height="10px" x="240" y="78" rx="2px" ry="2px" style="fill: #ffffff"></rect>
            <rect width="10px" height="10px" x="240" y="91" rx="2px" ry="2px" style="fill: #2e333a"></rect>
            <rect width="10px" height="10px" x="240" y="104" rx="2px" ry="2px" style="fill: #2e333a"></rect>
            <rect width="10px" height="10px" x="240" y="117" rx="2px" ry="2px" style="fill: #4d4d4d"></rect>
            <rect width="10px" height="10px" x="240" y="130" rx="2px" ry="2px" style="fill: #808080"></rect>
            <rect width="10px" height="10px" x="240" y="143" rx="2px" ry="2px" style="fill: #bfbfbf"></rect>
            <rect width="10px" height="10px" x="253" y="65" rx="2px" ry="2px" style="fill: #ffffff"></rect>
            <rect width="10px" height="10px" x="253" y="78" rx="2px" ry="2px" style="fill: #2e333a"></rect>
            <rect width="10px" height="10px" x="253" y="91" rx="2px" ry="2px" style="fill: #2e333a"></rect>
            <rect width="10px" height="10px" x="253" y="104" rx="2px" ry="2px" style="fill: #4d4d4d"></rect>
            <rect width="10px" height="10px" x="253" y="117" rx="2px" ry="2px" style="fill: #808080"></rect>
            <rect width="10px" height="10px" x="253" y="130" rx="2px" ry="2px" style="fill: #bfbfbf"></rect>
            <rect width="10px" height="10px" x="253" y="143" rx="2px" ry="2px" style="fill: #ffffff"></rect>
            <rect width="10px" height="10px" x="266" y="65" rx="2px" ry="2px" style="fill: #2e333a"></rect>
            <rect width="10px" height="10px" x="266" y="78" rx="2px" ry="2px" style="fill: #2e333a"></rect>
            <rect width="10px" height="10px" x="266" y="91" rx="2px" ry="2px" style="fill: #4d4d4d"></rect>
            <rect width="10px" height="10px" x="266" y="104" rx="2px" ry="2px" style="fill: #808080"></rect>
            <rect width="10px" height="10px" x="266" y="117" rx="2px" ry="2px" style="fill: #bfbfbf"></rect>
            <rect width="10px" height="10px" x="266" y="130" rx="2px" ry="2px" style="fill: #ffffff"></rect>
            <rect width="10px" height="10px" x="266" y="143" rx="2px" ry="2px" style="fill: #2e333a"></rect>
            <rect width="10px" height="10px" x="279" y="65" rx="2px" ry="2px" style="fill: #2e333a"></rect>
            <rect width="10px" height="10px" x="279" y="78" rx="2px" ry="2px" style="fill: #4d4d4d"></rect>
            <rect width="10px" height="10px" x="279" y="91" rx="2px" ry="2px" style="fill: #808080"></rect>
            <rect width="10px" height="10px" x="279" y="104" rx="2px" ry="2px" style="fill: #bfbfbf"></rect>
            <rect width="10px" height="10px" x="279" y="117" rx="2px" ry="2px" style="fill: #ffffff"></rect>
            <rect width="10px" height="10px" x="279" y="130" rx="2px" ry="2px" style="fill: #2e333a"></rect>
            <rect width="10px" height="10px" x="279" y="143" rx="2px" ry="2px" style="fill: #2e333a"></rect>
            <rect width="10px" height="10px" x="292" y="65" rx="2px" ry="2px" style="fill: #4d4d4d"></rect>
            <rect width="10px" height="10px" x="292" y="78" rx="2px" ry="2px" style="fill: #808080"></rect>
            <rect width="10px" height="10px" x="292" y="91" rx="2px" ry="2px" style="fill: #bfbfbf"></rect>
            <rect width="10px" height="10px" x="292" y="104" rx="2px" ry="2px" style="fill: #ffffff"></rect>
            <rect width="10px" height="10px" x="292" y="117" rx="2px" ry="2px" style="fill: #2e333a"></rect>
            <rect width="10px" height="10px" x="292" y="130" rx="2px" ry="2px" style="fill: #2e333a"></rect>
            <rect width="10px" height="10px" x="292" y="143" rx="2px" ry="2px" style="fill: #4d4d4d"></rect>
            <rect width="10px" height="10px" x="305" y="65" rx="2px" ry="2px" style="fill: #808080"></rect>
            <rect width="10px" height="10px" x="305" y="78" rx="2px" ry="2px" style="fill: #bfbfbf"></rect>
            <rect width="10px" height="10px" x="305" y="91" rx="2px" ry="2px" style="fill: #ffffff"></rect>
            <rect width="10px" height="10px" x="305" y="104" rx="2px" ry="2px" style="fill: #2e333a"></rect>
            <rect width="10px" height="10px" x="305" y="117" rx="2px" ry="2px" style="fill: #2e333a"></rect>
            <rect width="10px" height="10px" x="305" y="130" rx="2px" ry="2px" style="fill: #4d4d4d"></rect>
            <rect width="10px" height="10px" x="305" y="143" rx="2px" ry="2px" style="fill: #808080"></rect>
            <rect width="10px" height="10px" x="318" y="65" rx="2px" ry="2px" style="fill: #bfbfbf"></rect>
            <rect width="10px" height="10px" x="318" y="78" rx="2px" ry="2px" style="fill: #ffffff"></rect>
            <rect width="10px" height="10px" x="318" y="91" rx="2px" ry="2px" style="fill: #2e333a"></rect>
            <rect width="10px" height="10px" x="318" y="104" rx="2px" ry="2px" style="fill: #2e333a"></rect>
            <rect width="10px" height="10px" x="318" y="117" rx="2px" ry="2px" style="fill: #4d4d4d"></rect>
            <rect width="10px" height="10px" x="318" y="130" rx="2px" ry="2px" style="fill: #808080"></rect>
            <rect width="10px" height="10px" x="318" y="143" rx="2px" ry="2px" style="fill: #bfbfbf"></rect>
            <rect width="10px" height="10px" x="331" y="65" rx="2px" ry="2px" style="fill: #ffffff"></rect>
            <rect width="10px" height="10px" x="331" y="78" rx="2px" ry="2px" style="fill: #2e333a"></rect>
            <rect width="10px" height="10px" x="331" y="91" rx="2px" ry="2px" style="fill: #2e333a"></rect>
            <rect width="10px" height="10px" x="331" y="104" rx="2px" ry="2px" style="fill: #4d4d4d"></rect>
            <rect width="10px" height="10px" x="331" y="117" rx="2px" ry="2px" style="fill: #808080"></rect>
            <rect width="10px" height="10px" x="331" y="130" rx="2px" ry="2px" style="fill: #bfbfbf"></rect>
            <rect width="10px" height="10px" x="331" y="143" rx="2px" ry="2px" style="fill: #ffffff"></rect>
            <rect width="10px" height="10px" x="344" y="65" rx="2px" ry="2px" style="fill: #2e333a"></rect>
            <rect width="10px" height="10px" x="344" y="78" rx="2px" ry="2px" style="fill: #2e333a"></rect>
            <rect width="10px" height="10px" x="344" y="91" rx="2px" ry="2px" style="fill: #4d4d4d"></rect>
            <rect width="10px" height="10px" x="344" y="104" rx="2px" ry="2px" style="fill: #808080"></rect>
            <rect width="10px" height="10px" x="344" y="117" rx="2px" ry="2px" style="fill: #bfbfbf"></rect>
            <rect width="10px" height="10px" x="344" y="130" rx="2px" ry="2px" style="fill: #ffffff"></rect>
            <rect width="10px" height="10px" x="344" y="143" rx="2px" ry="2px" style="fill: #2e333a"></rect>
            <rect width="10px" height="10px" x="357" y="65" rx="2px" ry="2px" style="fill: #2e333a"></rect>
            <rect width="10px" height="10px" x="357" y="78" rx="2px" ry="2px" style="fill: #4d4d4d"></rect>
            <rect width="10px" height="10px" x="357" y="91" rx="2px" ry="2px" style="fill: #808080"></rect>
            <rect width="10px" height="10px" x="357" y="104" rx="2px" ry="2px" style="fill: #bfbfbf"></rect>
            <rect width="10px" height="10px" x="357" y="117" rx="2px" ry="2px" style="fill: #ffffff"></rect>
            <rect width="10px" height="10px" x="357" y="130" rx="2px" ry="2px" style="fill: #2e333a"></rect>
            <rect width="10px" height="10px" x="357" y="143" rx="2px" ry="2px" style="fill: #2e333a"></rect>
            <rect width="10px" height="10px" x="370" y="65" rx="2px" ry="2px" style="fill: #4d4d4d"></rect>
            <rect width="10px" height="10px" x="370" y="78" rx="2px" ry="2px" style="fill: #808080"></rect>
            <rect width="10px" height="10px" x="370" y="91" rx="2px" ry="2px" style="fill: #bfbfbf"></rect>
            <rect width="10px" height="10px" x="370" y="104" rx="2px" ry="2px" style="fill: #ffffff"></rect>
            <rect width="10px" height="10px" x="370" y="117" rx="2px" ry="2px" style="fill: #2e333a"></rect>
            <rect width="10px" height="10px" x="370" y="130" rx="2px" ry="2px" style="fill: #2e333a"></rect>
            <rect width="10px" height="10px" x="370" y="143" rx="2px" ry="2px" style="fill: #4d4d4d"></rect>
            <rect width="10px" height="10px" x="383" y="65" rx="2px" ry="2px" style="fill: #808080"></rect>
            <rect width="10px" height="10px" x="383" y="78" rx="2px" ry="2px" style="fill: #bfbfbf"></rect>
            <rect width="10px" height="10px" x="383" y="91" rx="2px" ry="2px" style="fill: #ffffff"></rect>
            <rect width="10px" height="10px" x="383" y="104" rx="2px" ry="2px" style="fill: #2e333a"></rect>
            <rect width="10px" height="10px" x="383" y="117" rx="2px" ry="2px" style="fill: #2e333a"></rect>
            <rect width="10px" height="10px" x="383" y="130" rx="2px" ry="2px" style="fill: #4d4d4d"></rect>
            <rect width="10px" height="10px" x="383" y="143" rx="2px" ry="2px" style="fill: #808080"></rect>
            <rect width="10px" height="10px" x="396" y="65" rx="2px" ry="2px" style="fill: #bfbfbf"></rect>
            <rect width="10px" height="10px" x="396" y="78" rx="2px" ry="2px" style="fill: #ffffff"></rect>
            <rect width="10px" height="10px" x="396" y="91" rx="2px" ry="2px" style="fill: #2e333a"></rect>
            <rect width="10px" height="10px" x="396" y="104" rx="2px" ry="2px" style="fill: #2e333a"></rect>
            <rect width="10px" height="10px" x="396" y="117" rx="2px" ry="2px" style="fill: #4d4d4d"></rect>
            <rect width="10px" height="10px" x="396" y="130" rx="2px" ry="2px" style="fill: #808080"></rect>
            <rect width="10px" height="10px" x="396" y="143" rx="2px" ry="2px" style="fill: #bfbfbf"></rect>
            <rect width="10px" height="10px" x="409" y="65" rx="2px" ry="2px" style="fill: #ffffff"></rect>
            <rect width="10px" height="10px" x="409" y="78" rx="2px" ry="2px" style="fill: #2e333a"></rect>
            <rect width="10px" height="10px" x="409" y="91" rx="2px" ry="2px" style="fill: #2e333a"></rect>
            <rect width="10px" height="10px" x="409" y="104" rx="2px" ry="2px" style="fill: #4d4d4d"></rect>
            <rect width="10px" height="10px" x="409" y="117" rx="2px" ry="2px" style="fill: #808080"></rect>
            <rect width="10px" height="10px" x="409" y="130" rx="2px" ry="2px" style="fill: #bfbfbf"></rect>
            <rect width="10px" height="10px" x="409" y="143" rx="2px" ry="2px" style="fill: #ffffff"></rect>
            <rect width="10px" height="10px" x="422" y="65" rx="2px" ry="2px" style="fill: #2e333a"></rect>
            <rect width="10px" height="10px" x="422" y="78" rx="2px" ry="2px" style="fill: #2e333a"></rect>
            <rect width="10px" height="10px" x="422" y="91" rx="2px" ry="2px" style="fill: #4d4d4d"></rect>
            <rect width="10px" height="10px" x="422" y="104" rx="2px" ry="2px" style="fill: #808080"></rect>
            <rect width="10px" height="10px" x="422" y="117" rx="2px" ry="2px" style="fill: #bfbfbf"></rect>
            <rect width="10px" height="10px" x="422" y="130" rx="2px" ry="2px" style="fill: #ffffff"></rect>
            <rect width="10px" height="10px" x="422" y="143" rx="2px" ry="2px" style="fill: #2e333a"></rect>
            <rect width="10px" height="10px" x="435" y="65" rx="2px" ry="2px" style="fill: #2e333a"></rect>
            <rect width="10px" height="10px" x="435" y="78" rx="2px" ry="2px" style="fill: #4d4d4d"></rect>
            <rect width="10px" height="10px" x="435" y="91" rx="2px" ry="2px" style="fill: #808080"></rect>
            <rect width="10px" height="10px" x="435" y="104" rx="2px" ry="2px" style="fill: #bfbfbf"></rect>
            <rect width="10px" height="10px" x="435" y="117" rx="2px" ry="2px" style="fill: #ffffff"></rect>
            <rect width="10px" height="10px" x="435" y="130" rx="2px" ry="2px" style="fill: #2e333a"></rect>
            <rect width="10px" height="10px" x="435" y="143" rx="2px" ry="2px" style="fill: #2e333a"></rect>
            <rect width="10px" height="10px" x="448" y="65" rx="2px" ry="2px" style="fill: #4d4d4d"></rect>
            <rect width="10px" height="10px" x="448" y="78" rx="2px" ry="2px" style="fill: #808080"></rect>
            <rect width="10px" height="10px" x="448" y="91" rx="2px" ry="2px" style="fill: #bfbfbf"></rect>
            <rect width="10px" height="10px" x="448" y="104" rx="2px" ry="2px" style="fill: #ffffff"></rect>
            <rect width="10px" height="10px" x="448" y="117" rx="2px" ry="2px" style="fill: #2e333a"></rect>
            <rect width="10px" height="10px" x="448" y="130" rx="2px" ry="2px" style="fill: #2e333a"></rect>
            <rect width="10px" height="10px" x="448" y="143" rx="2px" ry="2px" style="fill: #4d4d4d"></rect>
            <rect width="10px" height="10px" x="461" y="65" rx="2px" ry="2px" style="fill: #808080"></rect>
            <rect width="10px" height="10px" x="461" y="78" rx="2px" ry="2px" style="fill: #bfbfbf"></rect>
            <rect width="10px" height="10px" x="461" y="91" rx="2px" ry="2px" style="fill: #ffffff"></rect>
            <rect width="10px" height="10px" x="461" y="104" rx="2px" ry="2px" style="fill: #2e333a"></rect>
            <rect width="10px" height="10px" x="461" y="117" rx="2px" ry="2px" style="fill: #2e333a"></rect>
            <rect width="10px" height="10px" x="461" y="130" rx="2px" ry="2px" style="fill: #4d4d4d"></rect>
            <rect width="10px" height="10px" x="461" y="143" rx="2px" ry="2px" style="fill: #808080"></rect>
            <rect width="10px" height="10px" x="474" y="65" rx="2px" ry="2px" style="fill: #bfbfbf"></rect>
            <rect width="10px" height="10px" x="474" y="78" rx="2px" ry="2px" style="fill: #ffffff"></rect>
            <rect width="10px" height="10px" x="474" y="91" rx="2px" ry="2px" style="fill: #2e333a"></rect>
            <rect width="10px" height="10px" x="474" y="104" rx="2px" ry="2px" style="fill: #2e333a"></rect>
            <rect width="10px" height="10px" x="474" y="117" rx="2px" ry="2px" style="fill: #4d4d4d"></rect>
            <rect width="10px" height="10px" x="474" y="130" rx="2px" ry="2px" style="fill: #808080"></rect>
            <rect width="10px" height="10px" x="474" y="143" rx="2px" ry="2px" style="fill: #bfbfbf"></rect>
            <rect width="10px" height="10px" x="487" y="65" rx="2px" ry="2px" style="fill: #ffffff"></rect>
            <rect width="10px" height="10px" x="487" y="78" rx="2px" ry="2px" style="fill: #2e333a"></rect>
            <rect width="10px" height="10px" x="487" y="91" rx="2px" ry="2px" style="fill: #2e333a"></rect>
            <rect width="10px" height="10px" x="487" y="104" rx="2px" ry="2px" style="fill: #4d4d4d"></rect>
            <rect width="10px" height="10px" x="487" y="117" rx="2px" ry="2px" style="fill: #808080"></rect>
            <rect width="10px" height="10px" x="487" y="130" rx="2px" ry="2px" style="fill: #bfbfbf"></rect>
            <rect width="10px" height="10px" x="487" y="143" rx="2px" ry="2px" style="fill: #ffffff"></rect>
            <rect width="10px" height="10px" x="500" y="65" rx="2px" ry="2px" style="fill: #2e333a"></rect>
            <rect width="10px" height="10px" x="500" y="78" rx="2px" ry="2px" style="fill: #2e333a"></rect>
            <rect width="10px" height="10px" x="500" y="91" rx="2px" ry="2px" style="fill: #4d4d4d"></rect>
            <rect width="10px" height="10px" x="500" y="104" rx="2px" ry="2px" style="fill: #808080"></rect>
            <rect width="10px" height="10px" x="500" y="117" rx="2px" ry="2px" style="fill: #bfbfbf"></rect>
            <rect width="10px" height="10px" x="500" y="130" rx="2px" ry="2px" style="fill: #ffffff"></rect>
            <rect width="10px" height="10px" x="500" y="143" rx="2px" ry="2px" style="fill: #2e333a"></rect>
            <rect width="10px" height="10px" x="513" y="65" rx="2px" ry="2px" style="fill: #2e333a"></rect>
            <rect width="10px" height="10px" x="513" y="78" rx="2px" ry="2px" style="fill: #4d4d4d"></rect>
            <rect width="10px" height="10px" x="513" y="91" rx="2px" ry="2px" style="fill: #808080"></rect>
            <rect width="10px" height="10px" x="513" y="104" rx="2px" ry="2px" style="fill: #bfbfbf"></rect>
            <rect width="10px" height="10px" x="513" y="117" rx="2px" ry="2px" style="fill: #ffffff"></rect>
            <rect width="10px" height="10px" x="513" y="130" rx="2px" ry="2px" style="fill: #2e333a"></rect>
            <rect width="10px" height="10px" x="513" y="143" rx="2px" ry="2px" style="fill: #2e333a"></rect>
            <rect width="10px" height="10px" x="526" y="65" rx="2px" ry="2px" style="fill: #4d4d4d"></rect>
            <rect width="10px" height="10px" x="526" y="78" rx="2px" ry="2px" style="fill: #808080"></rect>
            <rect width="10px" height="10px" x="526" y="91" rx="2px" ry="2px" style="fill: #bfbfbf"></rect>
            <rect width="10px" height="10px" x="526" y="104" rx="2px" ry="2px" style="fill: #ffffff"></rect>
            <rect width="10px" height="10px" x="526" y="117" rx="2px" ry="2px" style="fill: #2e333a"></rect>
            <rect width="10px" height="10px" x="526" y="130" rx="2px" ry="2px" style="fill: #2e333a"></rect>
            <rect width="10px" height="10px" x="526" y="143" rx="2px" ry="2px" style="fill: #4d4d4d"></rect>
            <rect width="10px" height="10px" x="539" y="65" rx="2px" ry="2px" style="fill: #808080"></rect>
            <rect width="10px" height="10px" x="539" y="78" rx="2px" ry="2px" style="fill: #bfbfbf"></rect>
            <rect width="10px" height="10px" x="539" y="91" rx="2px" ry="2px" style="fill: #ffffff"></rect>
            <rect width="10px" height="10px" x="539" y="104" rx="2px" ry="2px" style="fill: #2e333a"></rect>
            <rect width="10px" height="10px" x="539" y="117" rx="2px" ry="2px" style="fill: #2e333a"></rect>
            <rect width="10px" height="10px" x="539" y="130" rx="2px" ry="2px" style="fill: #4d4d4d"></rect>
            <rect width="10px" height="10px" x="539" y="143" rx="2px" ry="2px" style="fill: #808080"></rect>
            <rect width="10px" height="10px" x="552" y="65" rx="2px" ry="2px" style="fill: #bfbfbf"></rect>
            <rect width="10px" height="10px" x="552" y="78" rx="2px" ry="2px" style="fill: #ffffff"></rect>
            <rect width="10px" height="10px" x="552" y="91" rx="2px" ry="2px" style="fill: #2e333a"></rect>
            <rect width="10px" height="10px" x="552" y="104" rx="2px" ry="2px" style="fill: #2e333a"></rect>
            <rect width="10px" height="10px" x="552" y="117" rx="2px" ry="2px" style="fill: #4d4d4d"></rect>
            <rect width="10px" height="10px" x="552" y="130" rx="2px" ry="2px" style="fill: #808080"></rect>
            <rect width="10px" height="10px" x="552" y="143" rx="2px" ry="2px" style="fill: #bfbfbf"></rect>
            <rect width="10px" height="10px" x="565" y="65" rx="2px" ry="2px" style="fill: #ffffff"></rect>
            <rect width="10px" height="10px" x="565" y="78" rx="2px" ry="2px" style="fill: #2e333a"></rect>
            <rect width="10px" height="10px" x="565" y="91" rx="2px" ry="2px" style="fill: #2e333a"></rect>
            <rect width="10px" height="10px" x="565" y="104" rx="2px" ry="2px" style="fill: #4d4d4d"></rect>
            <rect width="10px" height="10px" x="565" y="117" rx="2px" ry="2px" style="fill: #808080"></rect>
            <rect width="10px" height="10px" x="565" y="130" rx="2px" ry="2px" style="fill: #bfbfbf"></rect>
            <rect width="10px" height="10px" x="565" y="143" rx="2px" ry="2px" style="fill: #ffffff"></rect>
            <rect width="10px" height="10px" x="578" y="65" rx="2px" ry="2px" style="fill: #2e333a"></rect>
            <rect width="10px" height="10px" x="578" y="78" rx="2px" ry="2px" style="fill: #2e333a"></rect>
            <rect width="10px" height="10px" x="578" y="91" rx="2px" ry="2px" style="fill: #4d4d4d"></rect>
            <rect width="10px" height="10px" x="578" y="104" rx="2px" ry="2px" style="fill: #808080"></rect>
            <rect width="10px" height="10px" x="578" y="117" rx="2px" ry="2px" style="fill: #bfbfbf"></rect>
            <rect width="10px" height="10px" x="578" y="130" rx="2px" ry="2px" style="fill: #ffffff"></rect>
            <rect width="10px" height="10px" x="578" y="143" rx="2px" ry="2px" style="fill: #2e333a"></rect>
            <rect width="10px" height="10px" x="591" y="65" rx="2px" ry="2px" style="fill: #2e333a"></rect>
            <rect width="10px" height="10px" x="591" y="78" rx="2px" ry="2px" style="fill: #4d4d4d"></rect>
            <rect width="10px" height="10px" x="591" y="91" rx="2px" ry="2px" style="fill: #808080"></rect>
            <rect width="10px" height="10px" x="591" y="104" rx="2px" ry="2px" style="fill: #bfbfbf"></rect>
            <rect width="10px" height="10px" x="591" y="117" rx="2px" ry="2px" style="fill: #ffffff"></rect>
            <rect width="10px" height="10px" x="591" y="130" rx="2px" ry="2px" style="fill: #2e333a"></rect>
            <rect width="10px" height="10px" x="591" y="143" rx="2px" ry="2px" style="fill: #2e333a"></rect>
            <rect width="10px" height="10px" x="604" y="65" rx="2px" ry="2px" style="fill: #4d4d4d"></rect>
            <rect width="10px" height="10px" x="604" y="78" rx="2px" ry="2px" style="fill: #808080"></rect>
            <rect width="10px" height="10px" x="604" y="91" rx="2px" ry="2px" style="fill: #bfbfbf"></rect>
            <rect width="10px" height="10px" x="604" y="104" rx="2px" ry="2px" style="fill: #ffffff"></rect>
            <rect width="10px" height="10px" x="604" y="117" rx="2px" ry="2px" style="fill: #2e333a"></rect>
            <rect width="10px" height="10px" x="604" y="130" rx="2px" ry="2px" style="fill: #2e333a"></rect>
            <rect width="10px" height="10px" x="604" y="143" rx="2px" ry="2px" style="fill: #4d4d4d"></rect>
            <rect width="10px" height="10px" x="617" y="65" rx="2px" ry="2px" style="fill: #808080"></rect>
            <rect width="10px" height="10px" x="617" y="78" rx="2px" ry="2px" style="fill: #bfbfbf"></rect>
            <rect width="10px" height="10px" x="617" y="91" rx="2px" ry="2px" style="fill: #ffffff"></rect>
            <rect width="10px" height="10px" x="617" y="104" rx="2px" ry="2px" style="fill: #2e333a"></rect>
            <rect width="10px" height="10px" x="617" y="117" rx="2px" ry="2px" style="fill: #2e333a"></rect>
            <rect width="10px" height="10px" x="617" y="130" rx="2px" ry="2px" style="fill: #4d4d4d"></rect>
            <rect width="10px" height="10px" x="617" y="143" rx="2px" ry="2px" style="fill: #808080"></rect>
            <rect width="10px" height="10px" x="630" y="65" rx="2px" ry="2px" style="fill: #bfbfbf"></rect>
            <rect width="10px" height="10px" x="630" y="78" rx="2px" ry="2px" style="fill: #ffffff"></rect>
            <rect width="10px" height="10px" x="630" y="91" rx="2px" ry="2px" style="fill: #2e333a"></rect>
            <rect width="10px" height="10px" x="630" y="104" rx="2px" ry="2px" style="fill: #2e333a"></rect>
            <rect width="10px" height="10px" x="630" y="117" rx="2px" ry="2px" style="fill: #4d4d4d"></rect>
            <rect width="10px" height="10px" x="630" y="130" rx="2px" ry="2px" style="fill: #808080"></rect>
            <rect width="10px" height="10px" x="630" y="143" rx="2px" ry="2px" style="fill: #bfbfbf"></rect>
            <rect width="10px" height="10px" x="643" y="65" rx="2px" ry="2px" style="fill: #ffffff"></rect>
            <rect width="10px" height="10px" x="643" y="78" rx="2px" ry="2px" style="fill: #2e333a"></rect>
            <rect width="10px" height="10px" x="643" y="91" rx="2px" ry="2px" style="fill: #2e333a"></rect>
            <rect width="10px" height="10px" x="643" y="104" rx="2px" ry="2px" style="fill: #4d4d4d"></rect>
            <rect width="10px" height="10px" x="643" y="117" rx="2px" ry="2px" style="fill: #808080"></rect>
            <rect width="10px" height="10px" x="643" y="130" rx="2px" ry="2px" style="fill: #bfbfbf"></rect>
            <rect width="10px" height="10px" x="643" y="143" rx="2px" ry="2px" style="fill: #ffffff"></rect>
            <rect width="10px" height="10px" x="656" y="65" rx="2px" ry="2px" style="fill: #2e333a"></rect>
            <rect width="10px" height="10px" x="656" y="78" rx="2px" ry="2px" style="fill: #2e333a"></rect>
            <rect width="10px" height="10px" x="656" y="91" rx="2px" ry="2px" style="fill: #4d4d4d"></rect>
            <rect width="10px" height="10px" x="656" y="104" rx="2px" ry="2px" style="fill: #808080"></rect>
            <rect width="10px" height="10px" x="656" y="117" rx="2px" ry="2px" style="fill: #bfbfbf"></rect>
            <rect width="10px" height="10px" x="656" y="130" rx="2px" ry="2px" style="fill: #ffffff"></rect>
            <rect width="10px" height="10px" x="656" y="143" rx="2px" ry="2px" style="fill: #2e333a"></rect>
            <rect width="10px" height="10px" x="669" y="65" rx="2px" ry="2px" style="fill: #2e333a"></rect>
            <rect width="10px" height="10px" x="669" y="78" rx="2px" ry="2px" style="fill: #4d4d4d"></rect>
            <rect width="10px" height="10px" x="669" y="91" rx="2px" ry="2px" style="fill: #808080"></rect>
            <rect width="10px" height="10px" x="669" y="104" rx="2px" ry="2px" style="fill: #bfbfbf"></rect>
            <rect width="10px" height="10px" x="669" y="117" rx="2px" ry="2px" style="fill: #ffffff"></rect>
            <rect width="10px" height="10px" x="669" y="130" rx="2px" ry="2px" style="fill: #2e333a"></rect>
            <rect width="10px" height="10px" x="669" y="143" rx="2px" ry="2px" style="fill: #2e333a"></rect>
            <rect width="10px" height="10px" x="682" y="65" rx="2px" ry="2px" style="fill: #4d4d4d"></rect>
            <rect width="10px" height="10px" x="682" y="78" rx="2px" ry="2px" style="fill: #808080"></rect>
            <rect width="10px" height="10px" x="682" y="91" rx="2px" ry="2px" style="fill: #bfbfbf"></rect>
            <rect width="10px" height="10px" x="682" y="104" rx="2px" ry="2px" style="fill: #ffffff"></rect>
            <rect width="10px" height="10px" x="682" y="117" rx="2px" ry="2px" style="fill: #2e333a"></rect>
            <rect width="10px" height="10px" x="682" y="130" rx="2px" ry="2px" style="fill: #2e333a"></rect>
            <rect width="10px" height="10px" x="682" y="143" rx="2px" ry="2px" style="fill: #4d4d4d"></rect>
            <rect width="10px" height="10px" x="695" y="65" rx="2px" ry="2px" style="fill: #808080"></rect>
            <rect width="10px" height="10px" x="695" y="78" rx="2px" ry="2px" style="fill: #bfbfbf"></rect>
            <rect width="10px" height="10px" x="695" y="91" rx="2px" ry="2px" style="fill: #ffffff"></rect>
            <rect width="10px" height="10px" x="695" y="104" rx="2px" ry="2px" style="fill: #2e333a"></rect>
            <rect width="10px" height="10px" x="695" y="117" rx="2px" ry="2px" style="fill: #2e333a"></rect>
            <rect width="10px" height="10px" x="695" y="130" rx="2px" ry="2px" style="fill: #4d4d4d"></rect>
            <rect width="10px" height="10px" x="695" y="143" rx="2px" ry="2px" style="fill: #808080"></rect>
            <rect width="10px" height="10px" x="708" y="65" rx="2px" ry="2px" style="fill: #bfbfbf"></rect>
            <rect width="10px" height="10px" x="708" y="78" rx="2px" ry="2px" style="fill: #ffffff"></rect>
            <rect width="10px" height="10px" x="708" y="91" rx="2px" ry="2px" style="fill: #2e333a"></rect>
            <rect width="10px" height="10px" x="708" y="104" rx="2px" ry="2px" style="fill: #2e333a"></rect>
            <rect width="10px" height="10px" x="708" y="117" rx="2px" ry="2px" style="fill: #4d4d4d"></rect>
            <rect width="10px" height="10px" x="708" y="130" rx="2px" ry="2px" style="fill: #808080"></rect>
            <rect width="10px" height="10px" x="708" y="143" rx="2px" ry="2px" style="fill: #bfbfbf"></rect>
            <rect width="10px" height="10px" x="721" y="65" rx="2px" ry="2px" style="fill: #ffffff"></rect>
            <rect width="10px" height="10px" x="721" y="78" rx="2px" ry="2px" style="fill: #2e333a"></rect>
            <rect width="10px" height="10px" x="721" y="91" rx="2px" ry="2px" style="fill: #2e333a"></rect>
            <rect width="10px" height="10px" x="721" y="104" rx="2px" ry="2px" style="fill: #4d4d4d"></rect>
            <rect width="10px" height="10px" x="721" y="117" rx="2px" ry="2px" style="fill: #808080"></rect>
            <rect width="10px" height="10px" x="721" y="130" rx="2px" ry="2px" style="fill: #bfbfbf"></rect>
            <rect width="10px" height="10px" x="721" y="143" rx="2px" ry="2px" style="fill: #ffffff"></rect>
            <rect width="10px" height="10px" x="734" y="65" rx="2px" ry="2px" style="fill: #2e333a"></rect>
            <rect width="10px" height="10px" x="734" y="78" rx="2px" ry="2px" style="fill: #2e333a"></rect>
            <rect width="10px" height="10px" x="734" y="91" rx="2px" ry="2px" style="fill: #4d4d4d"></rect>
            <rect width="10px" height="10px" x="734" y="104" rx="2px" ry="2px" style="fill: #808080"></rect>
            <rect width="10px" height="10px" x="734" y="117" rx="2px" ry="2px" style="fill: #bfbfbf"></rect>
            <rect width="10px" height="10px" x="734" y="130" rx="2px" ry="2px" style="fill: #ffffff"></rect>
            <rect width="10px" height="10px" x="734" y="143" rx="2px" ry="2px" style="fill: #2e333a"></rect>
            <rect width="10px" height="10px" x="747" y="65" rx="2px" ry="2px" style="fill: #2e333a"></rect>
            <rect width="10px" height="10px" x="747" y="78" rx="2px" ry="2px" style="fill: #4d4d4d"></rect>
            <rect width="10px" height="10px" x="747" y="91" rx="2px" ry="2px" style="fill: #808080"></rect>
            <rect width="10px" height="10px" x="747" y="104" rx="2px" ry="2px" style="fill: #bfbfbf"></rect>
            <rect width="10px" height="10px" x="747" y="117" rx="2px" ry="2px" style="fill: #ffffff"></rect>
            <rect width="10px" height="10px" x="747" y="130" rx="2px" ry="2px" style="fill: #2e333a"></rect>
            <rect width="10px" height="10px" x="747" y="143" rx="2px" ry="2px" style="fill: #2e333a"></rect>
            <rect width="10px" height="10px" x="760" y="65" rx="2px" ry="2px" style="fill: #4d4d4d"></rect>
            <rect width="10px" height="10px" x="760" y="78" rx="2px" ry="2px" style="fill: #808080"></rect>
            <rect width="10px" height="10px" x="760" y="91" rx="2px" ry="2px" style="fill: #bfbfbf"></rect>
            <rect width="10px" height="10px" x="760" y="104" rx="2px" ry="2px" style="fill: #ffffff"></rect>
            <rect width="10px" height="10px" x="760" y="117" rx="2px" ry="2px" style="fill: #2e333a"></rect>
            <rect width="10px" height="10px" x="760" y="130" rx="2px" ry="2px" style="fill: #2e333a"></rect>
            <rect width="10px" height="10px" x="760" y="143" rx="2px" ry="2px" style="fill: #4d4d4d"></rect>
            <rect width="10px" height="10px" x="773" y="65" rx="2px" ry="2px" style="fill: #808080"></rect>
            <rect width="10px" height="10px" x="773" y="78" rx="2px" ry="2px" style="fill: #bfbfbf"></rect>
            <rect width="10px" height="10px" x="773" y="91" rx="2px" ry="2px" style="fill: #ffffff"></rect>
            <rect width="10px" height="10px" x="773" y="104" rx="2px" ry="2px" style="fill: #2e333a"></rect>
            <rect width="10px" height="10px" x="773" y="117" rx="2px" ry="2px" style="fill: #2e333a"></rect>
            <rect width="10px" height="10px" x="773" y="130" rx="2px" ry="2px" style="fill: #4d4d4d"></rect>
            <rect width="10px" height="10px" x="773" y="143" rx="2px" ry="2px" style="fill: #808080"></rect>
            <rect width="10px" height="10px" x="786" y="65" rx="2px" ry="2px" style="fill: #bfbfbf"></rect>
            <rect width="10px" height="10px" x="786" y="78" rx="2px" ry="2px" style="fill: #ffffff"></rect>
            <rect width="10px" height="10px" x="786" y="91" rx="2px" ry="2px" style="fill: #2e333a"></rect>
            <rect width="10px" height="10px" x="786" y="104" rx="2px" ry="2px" style="fill: #2e333a"></rect>
            <rect width="10px" height="10px" x="786" y="117" rx="2px" ry="2px" style="fill: #4d4d4d"></rect>
            <rect width="10px" height="10px" x="786" y="130" rx="2px" ry="2px" style="fill: #808080"></rect>
            <rect width="10px" height="10px" x="786" y="143" rx="2px" ry="2px" style="fill: #bfbfbf"></rect>
            <rect width="10px" height="10px" x="799" y="65" rx="2px" ry="2px" style="fill: #ffffff"></rect>
            <rect width="10px" height="10px" x="799" y="78" rx="2px" ry="2px" style="fill: #2e333a"></rect>
            <rect width="10px" height="10px" x="799" y="91" rx="2px" ry="2px" style="fill: #2e333a"></rect>
            <rect width="10px" height="10px" x="799" y="104" rx="2px" ry="2px" style="fill: #4d4d4d"></rect>
            <rect width="10px" height="10px" x="799" y="117" rx="2px" ry="2px" style="fill: #808080"></rect>
            <rect width="10px" height="10px" x="799" y="130" rx="2px" ry="2px" style="fill: #bfbfbf"></rect>
            <rect width="10px" height="10px" x="799" y="143" rx="2px" ry="2px" style="fill: #ffffff"></rect>
            <rect width="10px" height="10px" x="812" y="65" rx="2px" ry="2px" style="fill: #2e333a"></rect>
            <rect width="10px" height="10px" x="812" y="78" rx="2px" ry="2px" style="fill: #2e333a"></rect>
            <rect width="10px" height="10px" x="812" y="91" rx="2px" ry="2px" style="fill: #4d4d4d"></rect>
            <rect width="10px" height="10px" x="812" y="104" rx="2px" ry="2px" style="fill: #808080"></rect>
            <rect width="10px" height="10px" x="812" y="117" rx="2px" ry="2px" style="fill: #bfbfbf"></rect>
            <rect width="10px" height="10px" x="812" y="130" rx="2px" ry="2px" style="fill: #ffffff"></rect>
            <rect width="10px" height="10px" x="812" y="143" rx="2px" ry="2px" style="fill: #2e333a"></rect>
            
            </g>
            <g>
                <!-- Days  dis=(y:26) -->
                <text x="17" y="88" fill="#ffffff" font-size="12" font-family="Tahoma">
                    Mon
                </text>
                <text x="17" y="114" fill="#ffffff" font-size="12" font-family="Tahoma">
                    Wed
                </text>
                <text x="17" y="140" fill="#ffffff" font-size="12" font-family="Tahoma">
                    Fri
                </text>
            </g>
            <g>
                <!-- Months week=(x:13) -->
                <text x="46" y="55" fill="#ffffff" font-size="12" font-family="Tahoma">
                    Jan
                </text>
                <text x="111" y="55" fill="#ffffff" font-size="12" font-family="Tahoma">
                    Feb
                </text>
                <text x="176" y="55" fill="#ffffff" font-size="12" font-family="Tahoma">
                    Mar
                </text>
                <text x="241" y="55" fill="#ffffff" font-size="12" font-family="Tahoma">
                    Apr
                </text>
                <text x="306" y="55" fill="#ffffff" font-size="12" font-family="Tahoma">
                    May
                </text>
                <text x="371" y="55" fill="#ffffff" font-size="12" font-family="Tahoma">
                    Jun
                </text>
                <text x="436" y="55" fill="#ffffff" font-size="12" font-family="Tahoma">
                    Jul
                </text>
                <text x="501" y="55" fill="#ffffff" font-size="12" font-family="Tahoma">
                    Aug
                </text>
                <text x="566" y="55" fill="#ffffff" font-size="12" font-family="Tahoma">
                    Sep
                </text>
                <text x="631" y="55" fill="#ffffff" font-size="12" font-family="Tahoma">
                    Oct
                </text>
                <text x="696" y="55" fill="#ffffff" font-size="12" font-family="Tahoma">
                    Nov
                </text>
                <text x="761" y="55" fill="#ffffff" font-size="12" font-family="Tahoma">
                    Dec
                </text>
            </g>        
        </svg>